<svg width="1280" height="720" viewBox="0 0 1280 720" fill="none" xmlns="http://www.w3.org/2000/svg">
  <defs>
    <linearGradient id="bg2" x1="0" y1="0" x2="0" y2="1">
      <stop offset="0%" stop-color="#0B1220"/>
      <stop offset="100%" stop-color="#111827"/>
    </linearGradient>
    <linearGradient id="accent2" x1="0" y1="0" x2="1" y2="1">
      <stop offset="0%" stop-color="#34D399"/>
      <stop offset="100%" stop-color="#059669"/>
    </linearGradient>
    <filter id="soft2" x="-50%" y="-50%" width="200%" height="200%">
      <feGaussianBlur stdDeviation="8"/>
    </filter>
  </defs>
  <rect width="1280" height="720" fill="url(#bg2)"/>

  <!-- Title Bar -->
  <rect x="72" y="56" width="400" height="20" rx="10" fill="#1F2937"/>
  <rect x="72" y="56" width="210" height="20" rx="10" fill="url(#accent2)" opacity="0.8"/>

  <!-- Planner card -->
  <rect x="72" y="108" width="1136" height="504" rx="16" fill="#0F172A" stroke="#1F2937"/>

  <!-- Calendar grid -->
  <rect x="92" y="132" width="760" height="360" rx="12" fill="#111827"/>
  <!-- Week headers -->
  <rect x="112" y="148" width="100" height="12" rx="6" fill="#374151"/>
  <rect x="232" y="148" width="100" height="12" rx="6" fill="#374151"/>
  <rect x="352" y="148" width="100" height="12" rx="6" fill="#374151"/>
  <rect x="472" y="148" width="100" height="12" rx="6" fill="#374151"/>
  <rect x="592" y="148" width="100" height="12" rx="6" fill="#374151"/>
  <rect x="712" y="148" width="120" height="12" rx="6" fill="#374151"/>

  <!-- Calendar cells -->
  <g fill="#0B1220">
    <rect x="112" y="180" width="740" height="44" rx="6"/>
    <rect x="112" y="232" width="740" height="44" rx="6"/>
    <rect x="112" y="284" width="740" height="44" rx="6"/>
    <rect x="112" y="336" width="740" height="44" rx="6"/>
    <rect x="112" y="388" width="740" height="44" rx="6"/>
  </g>

  <!-- Campaign bars on calendar -->
  <rect x="132" y="236" width="260" height="36" rx="6" fill="#2563EB"/>
  <rect x="412" y="236" width="180" height="36" rx="6" fill="#60A5FA"/>
  <rect x="232" y="288" width="360" height="36" rx="6" fill="#34D399"/>
  <rect x="132" y="340" width="220" height="36" rx="6" fill="#FBBF24"/>

  <!-- Sidebar: budget and timeline -->
  <rect x="872" y="132" width="316" height="360" rx="12" fill="#111827"/>
  <rect x="892" y="152" width="140" height="12" rx="6" fill="#374151"/>
  <rect x="892" y="176" width="220" height="10" rx="5" fill="#1F2937"/>
  <rect x="892" y="198" width="220" height="10" rx="5" fill="#1F2937"/>

  <!-- Budget slider -->
  <rect x="892" y="236" width="260" height="8" rx="4" fill="#1F2937"/>
  <rect x="892" y="236" width="180" height="8" rx="4" fill="url(#accent2)"/>
  <circle cx="1072" cy="240" r="12" fill="#34D399"/>

  <!-- Spend breakdown bars -->
  <rect x="892" y="280" width="20" height="72" rx="4" fill="#2563EB"/>
  <rect x="920" y="300" width="20" height="52" rx="4" fill="#60A5FA"/>
  <rect x="948" y="288" width="20" height="64" rx="4" fill="#34D399"/>
  <rect x="976" y="312" width="20" height="40" rx="4" fill="#FBBF24"/>
  <rect x="1004" y="294" width="20" height="58" rx="4" fill="#EF4444"/>

  <!-- Footer area -->
  <rect x="72" y="628" width="1136" height="8" rx="4" fill="#1F2937"/>

  <!-- Glows -->
  <circle cx="1160" cy="84" r="44" fill="#34D399" opacity="0.12" filter="url(#soft2)"/>
  <circle cx="140" cy="650" r="60" fill="#2563EB" opacity="0.12" filter="url(#soft2)"/>
</svg>
