<svg width="1280" height="720" viewBox="0 0 1280 720" fill="none" xmlns="http://www.w3.org/2000/svg">
  <defs>
    <linearGradient id="bg3" x1="0" y1="0" x2="0" y2="1">
      <stop offset="0%" stop-color="#0B1220"/>
      <stop offset="100%" stop-color="#111827"/>
    </linearGradient>
    <linearGradient id="accent3" x1="0" y1="0" x2="1" y2="1">
      <stop offset="0%" stop-color="#F59E0B"/>
      <stop offset="100%" stop-color="#EF4444"/>
    </linearGradient>
    <filter id="soft3" x="-50%" y="-50%" width="200%" height="200%">
      <feGaussianBlur stdDeviation="8"/>
    </filter>
  </defs>
  <rect width="1280" height="720" fill="url(#bg3)"/>

  <!-- Title Bar -->
  <rect x="72" y="56" width="420" height="20" rx="10" fill="#1F2937"/>
  <rect x="72" y="56" width="150" height="20" rx="10" fill="url(#accent3)" opacity="0.8"/>

  <!-- Ideas board card -->
  <rect x="72" y="108" width="1136" height="504" rx="16" fill="#0F172A" stroke="#1F2937"/>

  <!-- Lightbulb idea -->
  <g transform="translate(140,170)">
    <circle cx="80" cy="80" r="70" fill="#111827"/>
    <path d="M80 25c30 0 55 25 55 55 0 22-12 38-26 47-6 4-9 11-9 18H60c0-7-3-14-9-18-14-9-26-25-26-47 0-30 25-55 55-55Z" fill="#FBBF24"/>
    <rect x="62" y="152" width="36" height="10" rx="5" fill="#F59E0B"/>
    <rect x="58" y="166" width="44" height="10" rx="5" fill="#F59E0B"/>
  </g>

  <!-- Idea cards -->
  <g>
    <rect x="300" y="140" width="260" height="140" rx="12" fill="#111827"/>
    <rect x="320" y="160" width="160" height="12" rx="6" fill="#374151"/>
    <rect x="320" y="184" width="200" height="10" rx="5" fill="#1F2937"/>
    <rect x="320" y="206" width="140" height="10" rx="5" fill="#1F2937"/>

    <rect x="600" y="140" width="260" height="140" rx="12" fill="#111827"/>
    <rect x="620" y="160" width="160" height="12" rx="6" fill="#374151"/>
    <rect x="620" y="184" width="200" height="10" rx="5" fill="#1F2937"/>
    <rect x="620" y="206" width="140" height="10" rx="5" fill="#1F2937"/>

    <rect x="900" y="140" width="260" height="140" rx="12" fill="#111827"/>
    <rect x="920" y="160" width="160" height="12" rx="6" fill="#374151"/>
    <rect x="920" y="184" width="200" height="10" rx="5" fill="#1F2937"/>
    <rect x="920" y="206" width="140" height="10" rx="5" fill="#1F2937"/>
  </g>

  <!-- Target graphic -->
  <g transform="translate(320,340)">
    <circle cx="300" cy="150" r="120" fill="#0B1220"/>
    <circle cx="300" cy="150" r="90" stroke="#1F2937" stroke-width="12" fill="none"/>
    <circle cx="300" cy="150" r="60" stroke="#374151" stroke-width="8" fill="none"/>
    <circle cx="300" cy="150" r="28" fill="#EF4444"/>
    <rect x="290" y="80" width="20" height="40" rx="10" fill="#60A5FA"/>
    <rect x="290" y="180" width="20" height="40" rx="10" fill="#34D399"/>
    <rect x="230" y="140" width="40" height="20" rx="10" fill="#FBBF24"/>
    <rect x="330" y="140" width="40" height="20" rx="10" fill="#A78BFA"/>
  </g>

  <!-- Notes list -->
  <rect x="72" y="628" width="1136" height="8" rx="4" fill="#1F2937"/>

  <!-- Glows -->
  <circle cx="1160" cy="84" r="44" fill="#F59E0B" opacity="0.12" filter="url(#soft3)"/>
  <circle cx="160" cy="660" r="60" fill="#EF4444" opacity="0.12" filter="url(#soft3)"/>
</svg>
